<svg width="351" height="129" viewBox="0 0 351 129" fill="none" xmlns="http://www.w3.org/2000/svg">
<g clip-path="url(#clip0_1_8)">
<path d="M70.87 64.7H12C12.46 77.59 22 87 36.55 87C48.18 87 55.18 80.7 58.26 74.4L68.91 75.8C66.1 85.46 55.18 97.8 36.55 97.8C15.13 97.76 0 81.93 0 60.5C0 40.61 14.43 24.09 35.43 24.09C57.14 24.09 70.87 41.6 70.87 61.62V64.7ZM12 56H58.82C58.12 45 49.3 34.87 35.43 34.87C22.13 34.87 12.46 44.4 12 56Z" fill="#fff"/>
<path d="M150.83 54.9V96.36H138.83V59.94C138.83 42.16 131.27 35.43 120.34 35.43C103.54 35.43 96.81 50.14 96.81 60.22V96.36H84.81V25.49H96.07L96.63 37.81C103.08 30.25 112.32 24.09 124.5 24.09C140.89 24.09 150.83 34.87 150.83 54.9Z" fill="#fff"/>
<path d="M181.5 96.36L170.3 128.57H157.84L169.6 95.57V25.57H181.5V96.36ZM168.62 6.86C168.609 5.95616 168.779 5.0593 169.12 4.22216C169.461 3.38502 169.966 2.6245 170.605 1.98534C171.244 1.34618 172.005 0.841283 172.842 0.500335C173.679 0.159387 174.576 -0.0107245 175.48 4.78746e-06C176.387 -0.0219229 177.289 0.14053 178.131 0.477515C178.973 0.8145 179.738 1.319 180.38 1.96043C181.021 2.60186 181.525 3.36687 181.862 4.20908C182.199 5.05128 182.362 5.95315 182.34 6.86C182.351 7.76385 182.181 8.66071 181.84 9.49785C181.499 10.335 180.994 11.0955 180.355 11.7347C179.715 12.3738 178.955 12.8787 178.118 13.2197C177.281 13.5606 176.384 13.7307 175.48 13.72C173.661 13.7174 171.918 12.9938 170.632 11.7078C169.346 10.4219 168.623 8.67858 168.62 6.86Z" fill="#fff"/>
<path d="M195 60.78C195 40.61 211.25 24.09 232.67 24.09C254.09 24.09 270.21 40.61 270.21 60.78C270.21 81.23 254.21 97.78 232.67 97.78C211.13 97.78 195 81.23 195 60.78ZM258.16 60.78C258.16 54.0011 255.467 47.4998 250.674 42.7064C245.88 37.9129 239.379 35.22 232.6 35.22C225.821 35.22 219.32 37.9129 214.526 42.7064C209.733 47.4998 207.04 54.0011 207.04 60.78C207.04 67.5589 209.733 74.0602 214.526 78.8537C219.32 83.6471 225.821 86.34 232.6 86.34C239.379 86.34 245.88 83.6471 250.674 78.8537C255.467 74.0602 258.16 67.5589 258.16 60.78Z" fill="#fff"/>
<path d="M288.78 25.49L313.15 81.37L337.24 25.49H350.13L305.45 128.57H292.7L306.7 96.22L275.9 25.49H288.78Z" fill="#fff"/>
</g>
<defs>
<clipPath id="clip0_1_8">
<rect width="350.13" height="128.57" fill="#fff"/>
</clipPath>
</defs>
</svg>
